HIERARCHY
ROOT Hips
{
 OFFSET 0.000000 0.000000 0.000000
 CHANNELS 6 Xposition Yposition Zposition Yrotation Xrotation Zrotation
 JOINT Chest
 {
  OFFSET 0.000000 9.585900 0.002600
  CHANNELS 3 Yrotation Xrotation Zrotation
  JOINT Chest2
  {
   OFFSET 0.000000 9.601200 -0.005300
   CHANNELS 3 Yrotation Xrotation Zrotation
   JOINT Chest3
   {
    OFFSET 0.000000 9.561800 0.000000
    CHANNELS 3 Yrotation Xrotation Zrotation
    JOINT Chest4
    {
     OFFSET 0.000000 9.552100 0.000000
     CHANNELS 3 Yrotation Xrotation Zrotation
     JOINT Neck
     {
      OFFSET 0.000000 14.453000 0.000000
      CHANNELS 3 Yrotation Xrotation Zrotation
      JOINT Head
      {
       OFFSET 0.000000 8.936500 -0.011300
       CHANNELS 3 Yrotation Xrotation Zrotation
       End Site
       {
        OFFSET 0.000000 17.073600 -0.006000
       }
      }
     }
     JOINT RightCollar
     {
      OFFSET -2.921100 9.558500 0.000000
      CHANNELS 3 Yrotation Xrotation Zrotation
      JOINT RightShoulder
      {
       OFFSET -13.519700 0.000000 0.000000
       CHANNELS 3 Yrotation Xrotation Zrotation
       JOINT RightElbow
       {
        OFFSET 0.000000 -29.696600 0.000000
        CHANNELS 3 Yrotation Xrotation Zrotation
        JOINT RightWrist
        {
         OFFSET 0.000000 -24.004700 0.000000
         CHANNELS 3 Yrotation Xrotation Zrotation
         End Site
         {
          OFFSET 0.000000 -17.728500 0.000000
         }
        }
       }
      }
     }
     JOINT LeftCollar
     {
      OFFSET 2.921100 9.558500 0.000000
      CHANNELS 3 Yrotation Xrotation Zrotation
      JOINT LeftShoulder
      {
       OFFSET 13.519700 0.000000 0.000000
       CHANNELS 3 Yrotation Xrotation Zrotation
       JOINT LeftElbow
       {
        OFFSET 0.000000 -29.696600 0.000000
        CHANNELS 3 Yrotation Xrotation Zrotation
        JOINT LeftWrist
        {
         OFFSET 0.000000 -24.004700 0.000000
         CHANNELS 3 Yrotation Xrotation Zrotation
         End Site
         {
          OFFSET 0.000000 -17.728500 0.000000
         }
        }
       }
      }
     }
    }
   }
  }
 }
 JOINT RightHip
 {
  OFFSET -7.771700 -0.012900 -0.001300
  CHANNELS 3 Yrotation Xrotation Zrotation
  JOINT RightKnee
  {
   OFFSET 0.000000 -40.869800 0.001200
   CHANNELS 3 Yrotation Xrotation Zrotation
   JOINT RightAnkle
   {
    OFFSET 0.000000 -39.717900 0.002100
    CHANNELS 3 Yrotation Xrotation Zrotation
    JOINT RightToe
    {
     OFFSET 0.000000 -4.965400 11.033500
     CHANNELS 3 Yrotation Xrotation Zrotation
     End Site
     {
      OFFSET 0.000000 -1.423100 5.872300
     }
    }
   }
  }
 }
 JOINT LeftHip
 {
  OFFSET 7.771700 -0.012900 -0.001300
  CHANNELS 3 Yrotation Xrotation Zrotation
  JOINT LeftKnee
  {
   OFFSET 0.000000 -40.869800 0.001200
   CHANNELS 3 Yrotation Xrotation Zrotation
   JOINT LeftAnkle
   {
    OFFSET 0.000000 -39.717900 0.002100
    CHANNELS 3 Yrotation Xrotation Zrotation
    JOINT LeftToe
    {
     OFFSET 0.000000 -4.965400 11.033500
     CHANNELS 3 Yrotation Xrotation Zrotation
     End Site
     {
      OFFSET 0.000000 -1.423100 5.872300
     }
    }
   }
  }
 }
}
MOTION
Frames: 5
Frame Time: 0.008333
-39.786616 46.595791 15.955291 176.605835 -30.762381 -2.799202 1.212293 19.494278 1.002004 -0.026182 2.213553 0.069608 0.058397 3.662279 0.112102 0.326673 16.452607 0.545703 -0.357157 16.937834 -2.686852 0.261639 -4.311134 -4.848166 1.087513 0.485794 -2.106158 6.986353 -8.805868 -16.405077 -46.239732 -55.448102 96.182321 -2.275270 6.790794 -21.681562 -0.105875 0.379325 2.009847 -3.549394 -3.433527 13.389093 69.574097 -70.458091 -107.827456 -0.578212 11.783736 11.331525 -11.183617 -56.559485 -6.166542 176.945799 83.732564 -173.240747 -5.492627 -11.300487 -9.602501 -0.017004 -0.602569 0.193418 3.028473 -58.395040 9.888020 -108.960791 81.226707 -113.649818 3.765884 -6.692707 7.573091 0.262899 0.457720 -0.138531
-39.785448 46.598526 15.939351 176.512504 -30.775541 -2.795273 1.244114 19.499069 1.029821 -0.092711 2.210800 0.073141 0.053920 3.666442 0.117264 0.308503 16.460570 0.566759 -0.353417 16.996024 -2.646144 0.252578 -4.204072 -4.772918 1.085602 0.521598 -2.114895 6.958722 -8.806603 -16.404957 -46.230225 -55.440379 96.176264 -2.284881 6.776586 -21.671207 -0.099771 0.368657 2.001935 -3.591093 -3.448935 13.415091 69.499348 -70.448271 -107.767664 -0.566349 11.809589 11.322722 -11.077992 -56.530705 -6.132954 176.944986 83.757896 -173.220573 -5.515193 -11.247331 -9.609374 -0.004865 -0.540181 0.188924 2.815424 -58.374670 10.011476 -109.494755 81.281044 -114.158700 3.876837 -6.753045 7.500148 0.229780 0.446158 -0.185914
-39.782790 46.602193 15.921846 176.447295 -30.797447 -2.814171 1.086540 19.504297 1.011240 -0.004273 2.221858 0.073802 0.049781 3.670563 0.122411 0.291924 16.468492 0.587944 -0.348971 17.058872 -2.601319 0.243275 -4.088518 -4.690189 1.083470 0.556728 -2.119283 6.932361 -8.807340 -16.408664 -46.215631 -55.429114 96.171196 -2.296579 6.754283 -21.664551 -0.094809 0.357930 1.995427 -3.627690 -3.466155 13.447670 69.434558 -70.438606 -107.721924 -0.557717 11.836827 11.303625 -11.015002 -56.484344 -6.077774 177.015090 83.781358 -173.137487 -5.538748 -11.224133 -9.589588 0.000281 -0.469601 0.164456 2.623490 -58.347775 10.130068 -109.990025 81.311590 -114.606404 3.943141 -6.821094 7.403310 0.233760 0.448254 -0.195176
-39.772880 46.606584 15.903834 176.369587 -30.825660 -2.872078 1.017655 19.521715 1.057456 0.026407 2.226603 0.076795 0.045242 3.674725 0.127323 0.273572 16.476389 0.607851 -0.343234 17.124341 -2.551720 0.234803 -3.968067 -4.599048 1.081720 0.589006 -2.120507 6.904953 -8.803995 -16.412382 -46.203822 -55.418134 96.176849 -2.307929 6.728671 -21.661989 -0.088904 0.344899 1.990893 -3.655977 -3.480321 13.484042 69.379262 -70.430616 -107.689569 -0.552953 11.862412 11.275272 -11.019782 -56.419523 -5.930325 177.246460 83.810103 -172.895735 -5.542338 -11.200345 -9.571326 0.008124 -0.411401 0.139247 2.453055 -58.322362 10.313807 -110.421257 81.300107 -114.958455 3.935190 -6.898657 7.309320 0.323653 0.464099 -0.152407
-39.769021 46.608885 15.887802 176.213789 -30.837577 -2.859509 1.040835 19.521777 1.082437 0.088477 2.231265 0.078996 -0.024369 3.676949 0.134745 0.253615 16.484455 0.625156 -0.336535 17.190110 -2.497230 0.226518 -3.847000 -4.499379 1.079010 0.619503 -2.119592 6.878868 -8.796869 -16.412200 -46.197673 -55.410662 96.191563 -2.315112 6.707315 -21.661741 -0.083852 0.328522 1.991487 -3.676515 -3.487049 13.520449 69.333699 -70.424170 -107.667786 -0.550678 11.883924 11.237935 -10.940716 -56.395887 -5.819846 177.590342 83.833629 -172.549852 -5.533756 -11.176336 -9.572041 0.003563 -0.314651 0.105204 2.303793 -58.305225 10.454763 -110.999387 81.348254 -115.497835 4.040246 -6.967489 7.252653 0.292087 0.451399 -0.175310
